<?xml version="1.0" standalone="no"?>
<!DOCTYPE svg PUBLIC "-//W3C//DTD SVG 20010904//EN"
 "http://www.w3.org/TR/2001/REC-SVG-20010904/DTD/svg10.dtd">
<svg version="1.0" xmlns="http://www.w3.org/2000/svg"
 width="400.000000pt" height="400.000000pt" viewBox="0 0 400.000000 400.000000"
 preserveAspectRatio="xMidYMid meet">
<metadata>
Created by potrace 1.11, written by Peter Selinger 2001-2013
</metadata>
<g transform="translate(0.000000,400.000000) scale(0.100000,-0.100000)"
fill="#000000" stroke="none">
<path d="M1868 3610 c-263 -48 -471 -210 -582 -452 -84 -183 -89 -428 -13
-616 72 -177 250 -356 425 -427 150 -61 378 -72 527 -25 206 65 384 217 475
405 50 104 69 178 76 300 14 229 -63 432 -226 595 -148 148 -310 218 -520 225
-63 2 -136 0 -162 -5z"/>
<path d="M1124 2165 c-82 -18 -187 -70 -246 -124 -196 -176 -309 -528 -312
-976 -1 -139 2 -169 21 -230 53 -170 171 -280 349 -325 74 -19 113 -20 1063
-20 1075 0 1049 -1 1169 58 124 60 224 190 253 329 20 96 6 410 -25 573 -81
426 -251 656 -533 715 -124 27 -136 24 -268 -61 -145 -93 -206 -124 -310 -157
-110 -36 -182 -47 -294 -47 -201 1 -356 55 -591 206 -129 82 -149 87 -276 59z"/>
</g>
</svg>
